<svg width="20" height="20" viewBox="0 0 20 20" fill="none" xmlns="http://www.w3.org/2000/svg">
<path d="M18.3333 8.33333H1.66667M9.16667 11.6667H5M1.66667 6.83333L1.66667 13.1667C1.66667 14.1001 1.66667 14.5668 1.84832 14.9233C2.00811 15.2369 2.26308 15.4919 2.57668 15.6517C2.9332 15.8333 3.39991 15.8333 4.33333 15.8333L15.6667 15.8333C16.6001 15.8333 17.0668 15.8333 17.4233 15.6517C17.7369 15.4919 17.9919 15.2369 18.1517 14.9233C18.3333 14.5668 18.3333 14.1001 18.3333 13.1667V6.83334C18.3333 5.89991 18.3333 5.4332 18.1517 5.07668C17.9919 4.76308 17.7369 4.50811 17.4233 4.34832C17.0668 4.16667 16.6001 4.16667 15.6667 4.16667L4.33334 4.16667C3.39991 4.16667 2.9332 4.16667 2.57668 4.34832C2.26308 4.50811 2.00811 4.76308 1.84832 5.07668C1.66667 5.4332 1.66667 5.89991 1.66667 6.83333Z" stroke="#667085" stroke-width="1.66667" stroke-linecap="round" stroke-linejoin="round"/>
</svg>
