<svg width="16" height="16" viewBox="0 0 16 16" fill="none" xmlns="http://www.w3.org/2000/svg">
<path d="M9.33333 1.51301V4.26671C9.33333 4.64008 9.33333 4.82676 9.406 4.96937C9.46991 5.09481 9.5719 5.1968 9.69734 5.26071C9.83995 5.33337 10.0266 5.33337 10.4 5.33337H13.1537M13.3333 6.65886V11.4667C13.3333 12.5868 13.3333 13.1469 13.1153 13.5747C12.9236 13.951 12.6176 14.257 12.2413 14.4487C11.8135 14.6667 11.2534 14.6667 10.1333 14.6667H5.86667C4.74656 14.6667 4.18651 14.6667 3.75869 14.4487C3.38236 14.257 3.0764 13.951 2.88465 13.5747C2.66667 13.1469 2.66667 12.5868 2.66667 11.4667V4.53337C2.66667 3.41327 2.66667 2.85322 2.88465 2.42539C3.0764 2.04907 3.38236 1.74311 3.75869 1.55136C4.18651 1.33337 4.74656 1.33337 5.86667 1.33337H8.00785C8.49703 1.33337 8.74162 1.33337 8.9718 1.38863C9.17587 1.43763 9.37096 1.51844 9.5499 1.62809C9.75174 1.75178 9.92469 1.92473 10.2706 2.27063L12.3961 4.39612C12.742 4.74202 12.9149 4.91497 13.0386 5.1168C13.1483 5.29575 13.2291 5.49084 13.2781 5.69491C13.3333 5.92509 13.3333 6.16968 13.3333 6.65886Z" stroke="#000000" stroke-width="1.33333" stroke-linecap="round" stroke-linejoin="round"/>
</svg>
