<svg xmlns:mydata="http://www.w3.org/2000/svg" mydata:contrastcolor="ffffff" mydata:template="Default" mydata:presentation="2.5" mydata:layouttype="undefined" mydata:specialfontid="undefined" mydata:id1="046" mydata:id2="564" mydata:companyname="Jolinker" mydata:companytagline="" version="1.1" xmlns="http://www.w3.org/2000/svg" xmlns:xlink="http://www.w3.org/1999/xlink" width="100%" viewBox="205.4107827904245 115.00000000000003 139.17843441915102 152.3526115988855"><g data-paper-data="{&quot;isIcon&quot;:&quot;true&quot;,&quot;iconType&quot;:&quot;icon&quot;,&quot;rawIconId&quot;:&quot;773283&quot;,&quot;selectedEffects&quot;:{&quot;container&quot;:&quot;&quot;,&quot;transformation&quot;:&quot;&quot;,&quot;pattern&quot;:&quot;&quot;},&quot;combineTerms&quot;:&quot;undefined&quot;,&quot;isDetailed&quot;:false,&quot;fillRule&quot;:&quot;evenodd&quot;,&quot;bounds&quot;:{&quot;x&quot;:205.4107827904245,&quot;y&quot;:115.00000000000003,&quot;width&quot;:139.17843441915102,&quot;height&quot;:152.3526115988855},&quot;iconStyle&quot;:&quot;standalone&quot;,&quot;suitableAsStandaloneIcon&quot;:true}" fill-rule="evenodd"><path d="M343.56927,159.12644c0.75338,2.26866 1.025,4.61762 1.01987,7.01099c-0.01247,6.786 -0.01025,13.57643 -0.0082,20.36602c0.00051,1.56175 0.00103,3.12334 0.00136,4.68492h-0.02221c0,2.55378 0.00444,5.1079 0.00871,7.6622c0.01059,6.21627 0.02118,12.43322 -0.03092,18.64948c-0.03929,4.46899 -1.64341,8.50919 -3.91891,12.29314c-2.3592,3.92061 -5.45982,7.05369 -9.47781,9.35994c-14.40463,8.25123 -28.76655,16.57592 -43.12165,24.90744c-4.60907,2.67695 -9.58715,3.52599 -14.81976,3.23899c-4.28278,-0.23404 -8.21194,-1.52212 -11.93951,-3.69682c-14.19109,-8.28027 -28.43514,-16.47854 -42.67407,-24.68194c-6.05261,-3.48328 -9.71014,-8.8201 -11.97368,-15.25709c-0.84904,-2.41729 -1.16679,-4.92511 -1.16508,-7.48761c0.00443,-5.38499 -0.00671,-10.76948 -0.01783,-16.15379c-0.02326,-11.26319 -0.04655,-22.52534 0.0725,-33.78751c0.10592,-9.95956 4.61932,-17.74954 13.19685,-22.82157c14.38926,-8.49894 28.92885,-16.74675 43.38303,-25.13123c4.32208,-2.51124 8.99094,-3.39957 13.90238,-3.26974c4.45703,0.12129 8.60485,1.25904 12.49643,3.52941c14.31751,8.34348 28.68285,16.61009 43.03282,24.8989c6.17903,3.57041 9.8639,9.06269 12.05568,15.68588zM297.19496,215.12377l23.19569,-23.19399c0.80121,-0.7995 1.25221,-1.886 1.2505,-3.01691l-0.00171,-10.14577c0,-1.13433 -0.44929,-2.21912 -1.2505,-3.02033l-16.66988,-16.66988c-0.80121,-0.7995 -1.8877,-1.2505 -3.02033,-1.2505h-10.14918c-1.13433,0 -2.21912,0.44929 -3.02033,1.2505l-23.19057,23.19057c-0.7995,0.80121 -1.2505,1.8877 -1.2505,3.02033v10.14748c0,1.13604 0.451,2.22254 1.25392,3.02374l0.74142,0.73971c1.66904,1.66733 4.37161,1.66221 6.03895,-0.00683c1.47258,-1.476 1.64171,-3.76003 0.50737,-5.42224v-6.71373l20.68786,-20.68786h6.61294l14.16717,14.16889l0.00171,6.60782l-20.69299,20.68958h-6.7069c-1.66904,-1.15483 -3.97016,-0.98571 -5.44957,0.49883c-1.66562,1.66904 -1.66391,4.37332 0.00683,6.03895l0.75679,0.75508c0.80121,0.79779 1.886,1.24708 3.01691,1.24708h10.14406c1.13433,0 2.21912,-0.44929 3.02033,-1.2505zM259.44943,224.52641c1.13433,0 2.21912,-0.44929 3.02033,-1.2505l23.19057,-23.19227c0.7995,-0.80121 1.2505,-1.8877 1.2505,-3.02033v-10.14748c0,-1.13604 -0.451,-2.22424 -1.25733,-3.02545l-0.74142,-0.738c-1.66904,-1.66562 -4.37503,-1.65878 -6.03895,0.01367c-1.46917,1.476 -1.63658,3.75833 -0.50396,5.41882v6.71202l-20.68958,20.68786l-6.61124,0.00171l-14.16717,-14.16889l-0.00171,-6.60782l20.69299,-20.69299h6.7069c1.66562,1.15312 3.96674,0.984 5.44957,-0.49883c1.66562,-1.66904 1.66391,-4.37332 -0.00683,-6.03895l-0.75679,-0.75508c-0.80121,-0.79779 -1.886,-1.24708 -3.01691,-1.24708h-10.14406c-1.13433,0 -2.21912,0.44929 -3.02033,1.2505l-23.19569,23.19399c-0.7995,0.80121 -1.2505,1.8877 -1.2505,3.02033l0.00171,10.14406c0,1.13433 0.44929,2.21912 1.2505,3.02033l16.66988,16.67158c0.80121,0.7995 1.8877,1.2505 3.02033,1.2505z" data-paper-data="{&quot;isPathIcon&quot;:true}" style="fill: #1570EF;"></path></g></svg>